# xmcd CD database file
#
# Track frame offsets:
#	150
#	23850
#	50550
#	58950
#
# Disc length: 1074 seconds
#
# Revision: 2
# Processed by: cddbd v1.5.2PL0 Copyright (c) Steve Scherf et al.
# Submitted via: CDex 1.70beta3
#
DISCID=34043004
DTITLE=元ちとせ - あなたがここにいてほしい
DYEAR=2007
DGENRE=JPop
TTITLE0=あなたがここにいてほしい
TTITLE1=ミヨリの森
TTITLE2=慕情 Love is a many-splendored thing
TTITLE3=失われたものたちへ
EXTD=YEAR: 2007
EXTT0=
EXTT1=
EXTT2=
EXTT3=
PLAYORDER=
